<svg width="698" height="114" viewBox="0 0 698 114" fill="none" xmlns="http://www.w3.org/2000/svg">
<path d="M363.704 2.96091C363.226 3.3383 363.12 3.49723 363.005 3.5012C359.386 3.62435 355.766 3.7183 352.148 3.86264C351.724 3.87985 351.309 4.15531 350.898 4.32348C350.654 4.42412 350.388 4.68237 350.198 4.64265C348.984 4.38708 349.298 5.09156 349.126 5.54575C352.162 5.70598 355.039 5.76424 357.888 6.03569C360.803 6.31377 363.704 7.16255 366.589 7.0884C369.202 7.02087 371.872 8.03518 374.416 7.24067C375.166 7.15062 375.83 7.00627 376.492 7.01024C377.088 7.01422 377.68 7.22878 378.277 7.25659C378.631 7.27248 378.999 7.10429 379.358 7.01954C379.096 6.75603 378.839 6.48717 378.565 6.23161C378.414 6.08992 378.236 5.97076 378.138 5.68606C380.314 6.28989 382.769 5.24112 384.813 6.85927C385.562 7.4525 387.051 7.53333 388.217 7.57438C390.398 7.64986 392.594 7.59949 394.771 7.45913C396.176 7.36908 397.696 7.76634 398.985 6.90033C399.143 6.79439 399.622 6.88713 399.851 7.01558C401.904 8.17159 404.264 7.9359 406.532 8.09083C408.523 8.22722 410.515 8.34902 412.512 8.40596C412.942 8.41787 413.383 8.12526 413.701 7.69093C415.482 7.92001 417.264 8.14906 419.212 8.39933C419.977 10.0307 422.042 9.37529 423.618 9.60834C425.677 9.91423 427.905 9.64146 429.854 10.1632C431.325 10.5578 432.64 10.2493 434.011 10.3909C434.538 10.4452 435.055 10.5737 435.51 10.7988C436.74 10.7087 437.969 10.6186 439.012 10.5418C439.472 10.1896 439.948 9.5951 440.239 9.65336C440.808 9.76724 441.278 10.2399 441.779 10.5763C442.156 10.8292 442.473 11.2556 442.892 11.3377C444.782 11.7085 446.706 11.9561 448.599 12.3123C449.06 12.3984 449.456 12.7281 449.899 12.9572C450.19 12.8168 450.539 12.5003 450.856 12.5202C454.114 12.7334 457.371 12.981 460.623 13.2578C464.418 13.5796 468.21 13.9238 471.998 14.2959C472.854 14.3807 473.682 14.6786 474.538 14.7699C476.47 14.9752 478.407 15.1315 480.348 15.2494C480.609 15.2653 480.9 14.9368 481.039 14.8521C481.734 15.0255 482.514 15.4083 483.21 15.3222C483.623 15.2706 483.911 14.4813 484.407 13.8179C485.207 13.998 486.328 14.3237 487.479 14.4681C487.81 14.5091 488.233 14.0285 488.337 13.9609C490.358 14.1476 492.181 14.3542 494.014 14.476C495.801 14.5939 497.596 14.6257 499.459 14.6985C499.649 14.3436 499.837 13.994 500.144 13.4273C500.115 14.7554 500.901 14.8785 502.089 14.8349C503.528 14.7806 504.978 15.0388 506.428 15.0864C507.132 15.109 507.842 14.9011 508.552 14.8945C510.428 14.8773 512.318 15.0282 514.177 14.8773C515.075 14.8045 516.575 15.0309 516.558 13.3704C515.33 13.1333 514.048 12.793 512.735 12.654C510.708 12.4408 508.645 12.45 506.626 12.2024C505.476 12.062 504.39 11.5813 503.259 11.294C502.998 11.2278 502.66 11.392 502.389 11.3364C501.958 11.2464 501.423 11.1536 501.162 10.8967C500.538 10.2797 500.136 9.99369 499.737 11.0252C499.396 11.9045 498.448 11.9323 497.567 11.9203C495.087 11.8846 492.612 11.7853 490.132 11.7774C489.424 11.7747 488.714 11.9958 487.86 12.1388C487.496 11.8038 486.954 11.3046 486.411 10.8054C486.126 11.1576 485.842 11.5099 485.559 11.8634C485.456 12.0131 485.351 12.1627 485.249 12.3123C484.811 11.8263 484.373 11.3391 483.935 10.8531C483.84 10.6995 483.745 10.5458 483.65 10.3922C483.389 10.7921 483.131 11.192 482.74 11.7932C482.491 11.2701 482.318 10.9086 482.061 10.3697C483.793 10.0744 485.361 9.8083 486.998 9.5289C486.849 9.08794 486.729 8.73304 486.607 8.37816C486.695 8.31195 486.782 8.24708 486.87 8.18087C487.157 8.39009 487.629 8.56353 487.702 8.81645C487.926 9.60699 488.497 9.66126 489.314 9.65199C492.206 9.62021 495.103 9.69574 497.993 9.64278C499.05 9.62291 500.093 9.31172 501.153 9.21903C502.245 9.12369 503.349 9.11443 504.449 9.10119C507.84 9.05882 511.237 9.11706 514.62 8.9608C516.015 8.89592 517.389 8.40466 518.758 8.06699C520.326 7.68033 521.894 7.34925 523.441 6.83414C525.08 6.28725 527.261 6.86464 529.202 6.99441C530.205 7.06062 531.198 7.22475 532.197 7.33863C532.395 7.36114 532.648 7.28569 532.789 7.36514C534.652 8.42846 536.662 8.49202 538.807 8.16495C539.461 8.06564 540.205 8.48278 540.906 8.47086C541.41 8.46292 541.908 8.13978 541.998 8.10668C543.479 8.46686 544.607 8.85749 545.779 9.00315C548.118 9.29315 550.478 9.46667 552.834 9.64941C553.647 9.71297 554.473 9.65999 555.434 9.65999C555.496 9.53684 555.649 9.24282 555.869 8.81379C556.357 9.26004 556.726 9.59777 557.095 9.93543C557.11 9.82155 557.124 9.70765 557.139 9.59509C559.379 9.76856 561.617 9.96184 563.858 10.1075C564.694 10.1618 565.541 10.1062 566.384 10.0969C566.521 10.0956 566.692 10.0188 566.791 10.0639C569.701 11.4225 572.974 11.4185 576.131 11.833C578.166 12.0991 580.215 12.3017 582.265 12.4752C583.226 12.556 584.202 12.5016 585.173 12.5043C585.43 12.5043 585.746 12.3997 585.936 12.4897C588.627 13.7662 590.319 11.7045 592.465 11.155C593.451 10.902 594.522 10.7828 595.554 10.7868C596.359 10.7908 597.181 11.0318 597.956 11.2662C598.251 11.3562 598.431 11.7151 598.665 11.9521C598.361 12.1521 598.089 12.4606 597.744 12.5335C596.595 12.7758 595.421 12.9347 594.256 13.1254C594.235 13.332 594.214 13.5385 594.193 13.7451C595.196 13.9477 596.193 14.1847 597.206 14.3449C600.196 14.8176 603.174 15.4268 606.19 15.6651C608.913 15.8797 611.684 15.6493 614.432 15.6744C614.977 15.6797 615.511 15.9711 616.061 16.0982C616.84 16.2783 617.62 17.2608 618.238 16.2544C619.093 16.4279 619.818 16.5762 620.916 16.7987C620.471 15.8413 620.199 15.2097 619.885 14.5913C619.515 13.8669 619.5 13.8722 620.564 13.614C622.206 14.856 623.006 16.212 621.24 17.8342C620.76 17.7666 620.132 17.6382 619.496 17.6051C619.091 17.5852 618.678 17.7084 618.267 17.768C618.412 18.0765 618.453 18.5095 618.722 18.6711C619.588 19.1928 620.478 19.7635 621.468 20.0389C622.827 20.4176 624.29 20.5196 625.697 20.7845C627.238 21.0745 628.764 21.4188 630.3 21.7326C630.593 21.7922 630.979 21.9378 631.183 21.8398C633.564 20.6759 636.137 21.0519 638.651 21.2042C639.772 21.2717 640.851 21.7366 641.973 21.8809C642.94 22.0054 644.109 22.3245 644.472 21.1883C647.315 22.9349 649.224 21.2082 651.302 19.9237C650.372 17.8924 647.591 18.0897 645.939 16.8C648.686 17.1429 651.443 17.4436 654.168 17.8805C654.518 17.9362 655.023 18.7717 654.918 19.1385C654.088 22.0424 654.178 22.2609 657.198 23.6169C657.485 23.7453 657.775 24.1545 657.765 24.426C657.693 26.35 658.012 28.1734 659.057 29.9279C659.602 30.8429 659.986 30.8337 660.681 30.0233C660.854 30.1915 661.177 30.3768 661.147 30.4946C660.753 31.9592 662.039 32.8027 662.919 33.7283C663.32 34.1507 664.211 34.2408 664.881 34.4818C665.065 34.0607 665.13 33.5496 665.461 33.2371C666.192 32.5432 667.056 31.9474 667.868 31.3157C668.23 31.0337 668.559 30.6933 668.982 30.5C669.423 30.2974 669.956 30.2378 670.449 30.116C670.512 30.4113 670.624 30.7066 670.62 31.0019C670.616 31.2892 670.445 31.5726 670.434 31.8613C670.363 33.6886 669.878 34.0395 667.682 33.6423C667.682 34.3189 667.682 34.9625 667.682 35.6696C669.121 35.614 670.46 35.561 671.99 35.5014C672.15 36.088 672.392 36.9713 672.664 37.9737C673.952 36.9858 675.376 37.0361 677.085 38.1458C678.647 39.1615 680.526 38.8304 682.237 39.184C682.511 39.2409 682.897 38.9059 683.464 38.6463C683.401 39.0012 683.466 39.3402 683.304 39.4554C681.999 40.3863 683.051 40.593 683.881 40.9161C685.438 41.5212 687.065 41.5503 688.749 41.5755C690.205 41.598 691.742 41.8178 692.886 43.1579C692.241 43.0758 691.794 43.0202 691.012 42.9208C691.322 43.5512 691.563 44.0411 691.801 44.5218C690.319 44.7019 689.761 44.3166 689.676 43.1751C689.657 42.9301 689.274 42.5408 688.998 42.4998C687.548 42.2826 686.077 42.1541 684.334 41.9661C684.499 42.5117 684.612 42.8573 684.709 43.2056C684.954 44.0809 685.16 44.87 683.864 45.4209C683.232 45.6897 682.853 46.332 683.357 47.0921C683.692 47.5979 683.769 48.2255 684.006 48.934C686.402 46.7279 688.17 48.9008 690.334 49.2941C689.59 49.6172 689.002 49.8741 688.33 50.1655C687.63 49.9059 686.804 49.5245 685.923 49.3074C685.571 49.2213 685.061 49.4477 684.693 49.6331C684.587 49.6874 684.655 50.2661 684.768 50.2979C685.11 50.3945 685.512 50.3455 685.89 50.3495C686.199 50.3521 686.505 50.3495 686.615 50.3495C686.494 50.9997 686.4 51.4923 686.309 51.9836C686.829 51.8141 687.35 51.6459 688.134 51.3903C688.5 51.6274 689.735 51.6539 689.263 52.986C688.855 52.6059 688.602 52.3702 688.349 52.1345C688.241 52.1557 688.13 52.1756 688.022 52.1968C688.056 52.6192 687.923 53.1303 688.159 53.4468C688.682 54.1539 688.951 54.7246 688.098 55.4C687.911 55.5483 687.925 56.1879 688.106 56.2991C688.859 56.7599 689.714 57.1041 690.53 57.4921C690.621 57.3915 690.713 57.2896 690.804 57.189C690.981 57.6233 691.16 58.0576 691.415 58.68C691.754 58.2615 691.98 57.9848 692.19 57.7239C693.309 58.0232 691.857 59.8744 693.645 59.5393C694.266 60.2597 694.82 60.9059 695.524 61.7229C694.924 64.1554 696.369 66.6171 697.063 69.1635C697.716 71.5537 698.475 73.9253 697.615 76.3578C697.212 77.4939 696.527 78.5652 695.891 79.6325C695.754 79.8643 695.282 79.9543 694.745 79.8815C695.006 79.6259 695.267 79.3703 695.6 79.0433C694.998 78.4924 694.39 77.9363 693.779 77.3801C695.105 76.7683 695.512 75.125 694.576 74.1584C694.445 74.0233 694.287 73.9081 694.15 73.777C692.842 72.5084 692.844 72.5085 691.381 73.8035C690.345 72.3429 689.339 70.922 688.307 69.4681C687.754 69.4932 687.106 69.5237 686.663 69.5435C685.866 70.4665 685.135 71.3167 684.402 72.1655C684.309 72.0331 684.216 71.9006 684.124 71.7669C683.346 71.9311 682.572 72.2264 681.791 72.2317C680.288 72.241 679.439 73.2605 678.219 73.671C675.661 74.5331 675.024 74.4536 673.364 71.9681C672.735 72.6898 672.008 73.2632 671.669 73.9677C671.117 75.1144 670.531 76.1512 669.153 76.7617C668.949 76.8517 668.972 77.3086 668.892 77.5946C669.395 77.6463 669.899 77.6979 670.401 77.7495C670.415 77.6463 670.426 77.5443 670.439 77.441C671.077 77.7866 671.715 78.1309 672.502 78.5587C671.44 79.1413 670.852 80.2788 669.414 79.4458C669.379 79.426 669.292 79.4286 669.263 79.4498C667.941 80.4602 665.83 80.1847 664.667 81.4533C664.513 81.6215 664.177 81.8095 664.209 81.9419C664.732 84.1984 662.222 84.0924 661.008 84.4022C658.583 85.0206 655.953 85.0709 653.403 85.3305C652.905 85.3808 652.374 85.2471 651.885 85.3199C651.365 85.398 650.682 85.4987 650.408 85.8046C649.439 86.8904 648.613 88.0663 647.62 89.3573C649.148 88.9654 650.552 88.5072 652.006 88.2636C653.259 88.0544 654.568 88.0199 655.851 88.0344C657.386 88.0517 657.371 88.9322 656.84 89.7585C656.397 90.4484 655.674 91.01 655.082 91.6217C656.048 91.9951 657.927 91.5568 658.262 90.6511C658.694 89.4858 659.476 88.837 661.118 88.6012C660.917 88.9945 660.846 89.3759 660.585 89.5971C659.512 90.5015 659.581 91.1357 661.065 91.6045C661.348 91.6946 661.533 92.0083 661.638 92.4241C660.998 92.2758 660.357 92.1289 659.626 91.9594C659.447 92.3288 659.394 92.7459 659.12 92.9327C658.635 93.2637 657.719 93.7868 657.502 93.6491C656.305 92.889 655.394 93.6543 654.332 93.8013C651.886 94.139 649.414 94.5958 646.942 93.7364C644.773 92.983 643.682 93.5325 642.866 95.4062C642.581 96.0617 641.785 96.5464 641.334 97.1661C640.826 97.8639 640.518 98.6677 639.987 99.3497C639.602 99.8409 638.915 100.16 638.51 100.643C638.173 101.045 637.907 101.564 637.859 102.047C637.762 103.048 637.83 104.061 637.83 105.269C636.259 104.593 634.964 104.036 633.516 103.414C633.238 104.17 632.978 104.879 632.679 105.696C631.72 105.238 631.177 104.854 631.457 103.909C631.857 102.553 630.622 101.717 629.725 100.421C629.269 101.301 629.019 101.942 628.625 102.512C627.655 103.911 626.591 105.265 625.624 106.664C625.297 107.139 625.145 107.7 624.802 108.471C623.236 107.369 621.71 106.295 620.204 105.236C619.283 105.842 618.151 106.594 617.013 107.337C615.879 108.077 614.918 109.134 613.119 108.901C613.325 108.073 613.513 107.309 613.726 106.447C611.165 106.006 608.794 105.597 606.032 105.122C606.866 104.951 607.322 104.856 607.93 104.731C607.425 103.897 606.715 103.51 605.791 103.766C604.546 104.109 603.577 103.811 602.643 103.163C601.242 102.194 599.695 101.519 597.819 101.787C597.012 101.903 596.241 102.197 595.501 102.554C591.99 101.626 588.368 100.79 584.533 100.598C582.43 100.492 580.341 100.41 578.312 99.4688C576.862 98.7961 574.902 98.8252 573.155 98.7034C571.44 98.5842 569.705 98.6359 567.982 98.6862C567.349 98.7047 566.723 98.9312 566.095 99.0676C565.996 99.0888 565.876 99.1934 565.819 99.1696C564.022 98.4386 562.701 99.8912 561.025 99.8992C559.354 99.9071 557.679 100.414 556.016 100.382C554.905 100.36 553.791 99.8131 552.712 99.4318C551.791 99.106 550.954 98.9193 550.177 99.6502C550.048 99.7721 549.831 99.8793 549.643 99.8965C548.152 100.041 547.886 101.009 547.42 101.977C546.963 102.922 546.187 103.77 545.463 104.608C544.972 105.176 544.422 105.008 543.724 104.662C542.89 104.25 541.876 104.098 540.936 103.84C540.723 103.782 540.329 103.771 540.314 103.697C540.272 103.477 540.346 103.229 540.437 103.011C540.481 102.908 540.685 102.859 540.788 102.763C541.17 102.403 541.541 102.035 541.916 101.67C541.202 101.499 540.496 101.211 539.775 101.181C538.19 101.113 536.589 101.113 535.006 101.213C534.346 101.254 533.714 101.614 532.924 101.879C532.146 101.658 531.183 101.385 529.94 101.033C529.247 101.655 528.361 102.452 527.401 103.313C527.342 103.098 527.152 102.823 527.243 102.661C528.007 101.305 527.148 101.316 525.927 101.439C524.048 101.627 522.155 101.704 520.273 101.87C519.846 101.907 519.443 102.117 519.026 102.239C518.704 102.333 518.358 102.522 518.055 102.483C516.352 102.265 514.66 101.991 512.82 101.715C512.82 102.239 512.82 102.583 512.82 103.345C511.871 102.816 511.176 102.431 510.283 101.934C509.954 102.02 509.347 102.189 508.732 102.334C508.573 102.373 508.287 102.401 508.23 102.332C507.379 101.315 507.162 102.266 506.713 102.705C505.811 101.691 505.328 102.213 505.016 103.125C503.109 102.129 501.198 102.056 499.356 102.632C499.432 103.173 499.495 103.62 499.558 104.069C499.069 103.681 498.578 103.292 498.018 102.848C497.872 102.981 497.607 103.219 497.344 103.455C494.743 102.254 492.22 103.651 489.687 103.627C489.559 103.28 489.454 102.994 489.348 102.708C489.034 102.799 488.682 102.843 488.411 102.991C487.753 103.351 487.131 103.761 486.495 104.15C486.373 103.984 486.251 103.819 486.13 103.655C486.663 103.461 487.195 103.269 487.726 103.076C487.732 102.991 487.738 102.905 487.744 102.82C486.537 102.745 485.329 102.669 484.122 102.594C484.109 102.721 484.095 102.849 484.082 102.977C484.573 103.296 485.075 103.603 485.534 103.953C485.578 103.987 485.336 104.286 485.083 104.694C483.724 103.66 482.6 102.574 481.218 101.829C480.217 101.288 478.873 101.2 477.574 100.882C477.771 103.016 475.613 102.273 474.572 102.857C474.338 102.989 473.851 103.011 473.813 103.147C473.273 105.126 471.322 105.138 469.548 105.303C468.319 105.418 467.063 105.33 465.822 105.373C463.274 105.465 460.73 105.584 458.181 105.692C458.117 105.801 458.052 105.91 457.987 106.018C458.903 106.335 459.818 106.651 461.106 107.097C459.671 107.097 458.602 107.105 457.534 107.095C456.423 107.084 456.335 106.899 457.201 105.691C456.08 105.597 455.138 105.519 454.069 105.43C454.318 106.144 454.461 106.549 454.602 106.954C454.32 106.968 453.82 107.05 453.789 106.982C453.566 106.491 453.439 105.971 453.209 105.222C447.673 105.401 441.944 105.585 436.216 105.771C435.965 105.779 435.632 105.899 435.474 105.804C433.388 104.547 431.211 105.225 428.99 105.432C426.604 105.653 424.174 105.518 421.764 105.579C419.85 105.628 417.937 105.736 416.023 105.824C415.507 105.847 414.989 105.931 414.479 105.91C411.726 105.792 408.974 105.653 406.222 105.506C405.988 105.494 405.761 105.375 405.543 105.103C407.155 105.008 408.764 104.913 410.47 104.813C410.399 104.152 410.338 103.578 410.253 102.757C409.364 103.204 408.688 103.543 408.005 103.888C406.064 102.36 403.386 102.589 401.727 104.465C400.566 105.777 400.427 105.828 398.834 105.41C399.94 104.796 400.581 104.076 399.611 102.904C398.901 103.174 398.151 103.459 397.27 103.794C397.257 103.787 396.798 103.4 396.659 103.471C393.974 104.815 390.883 103.794 388.118 104.554C387.764 104.65 387.467 104.891 387.199 105.036C387.947 105.482 388.468 105.911 389.093 106.116C389.397 106.217 389.943 105.961 390.295 105.761C391.264 105.209 392.179 104.948 393.1 105.732C392.124 106.051 391.135 106.257 390.293 106.674C388.607 107.508 386.862 106.833 385.157 106.974C383.686 107.096 382.226 107.319 380.753 107.398C380.295 107.423 379.497 107.217 379.393 106.96C378.749 105.393 377.299 105.939 376.041 105.915C374.679 105.888 373.152 106.177 372.46 104.759C371.539 104.923 370.646 105.086 369.752 105.238C369.523 105.278 369.223 105.38 369.067 105.299C367.261 104.362 365.489 104.873 363.662 105.258C362.944 105.409 362.113 105.209 361.338 105.13C359.683 104.96 358.031 104.764 356.335 104.865C357.74 105.6 359.146 106.335 360.626 107.109C360.446 108.075 359.782 108.587 358.581 108.623C357.203 108.664 355.745 108.489 354.464 108.808C352.207 109.372 350.141 108.419 347.931 108.563C344.846 108.763 341.723 108.505 338.625 108.608C337.108 108.659 335.618 109.239 334.102 109.297C331.925 109.38 329.734 109.19 327.549 109.15C326.939 109.139 326.31 109.342 325.717 109.277C324.398 109.134 322.875 109.486 321.916 108.306C321.878 108.259 321.635 108.33 321.323 108.363C321.583 108.701 321.789 108.967 321.994 109.235C321.939 109.311 321.884 109.387 321.829 109.464C320.647 109.082 319.454 108.723 318.295 108.297C318.103 108.227 318.004 107.865 317.966 107.627C317.714 106.069 316.561 105.618 314.93 106.321C314.342 106.574 313.539 106.498 312.831 106.524C311.956 106.557 311.048 106.429 310.211 106.585C309.47 106.723 308.45 107.03 308.218 107.496C308.005 107.924 308.677 108.667 308.968 109.268C309.076 109.49 309.21 109.705 309.377 110C304.735 110 300.229 110 295.513 110C295.513 109.534 295.513 108.906 295.513 108.064C294.067 108.064 292.518 108.064 290.971 108.064C290.953 107.905 290.934 107.745 290.917 107.586C291.467 107.497 292.015 107.409 293.013 107.247C292.457 106.988 292.128 106.699 291.808 106.708C290.249 106.747 288.672 106.757 287.144 106.982C285.505 107.225 284.803 106.227 283.684 105.552C283.408 105.931 283.075 106.386 282.928 106.59C282.022 106.59 281.4 106.621 280.784 106.584C279.539 106.508 278.292 106.294 277.053 106.321C275.398 106.357 273.75 106.569 272.096 106.704C271.818 106.727 271.533 106.78 271.261 106.751C269.323 106.537 267.295 105.899 265.479 106.196C263.62 106.499 262.101 105.996 260.434 105.821C260.04 105.78 259.621 105.839 259.226 105.904C258.228 106.069 257.226 106.308 256.487 105.05C256.2 105.519 256.011 105.829 255.834 106.118C254.407 105.257 253.353 104.583 251.828 105.862C251.259 106.34 249.691 105.981 248.578 105.989C245.763 106.009 242.949 106.024 240.134 106.033C239.792 106.034 239.447 105.992 239.019 105.965C239.019 106.29 239.019 106.609 239.019 106.938C237.451 105.458 235.797 104.917 233.789 106.319C233.171 106.088 232.381 105.796 231.591 105.502C230.187 104.391 228.796 104.007 228.267 104.627C225.42 103.901 222.702 103.215 219.988 102.513C218.447 102.113 216.943 101.541 215.368 101.321C214.256 101.166 213.05 101.443 211.898 101.595C211.63 101.631 211.411 101.944 210.979 102.275C211.651 102.398 212.06 102.472 212.545 102.561C212.536 102.717 212.58 103 212.505 103.026C211.539 103.339 210.576 103.788 209.573 103.866C207.837 104.003 206.075 103.905 204.216 103.905C203.744 102.559 202.452 102.872 201.277 102.859C200.088 102.844 198.699 103.202 198.069 101.77C197.553 101.895 197.026 102.133 196.503 102.126C195.077 102.108 193.656 101.954 192.23 101.923C191.627 101.909 190.938 101.944 190.428 102.174C189.496 102.594 188.797 102.394 187.844 102.133C186.413 101.744 184.814 101.791 183.248 101.822C184.605 102.636 186.367 102.787 187.189 104.562C186.793 105.816 184.974 105.398 183.566 105.614C182.494 105.779 181.402 105.884 180.313 105.912C179.851 105.924 179.383 105.571 178.913 105.563C177.07 105.528 175.228 105.575 173.384 105.571C171.824 105.567 170.254 105.441 168.703 105.536C166.927 105.646 165.174 106.05 163.399 106.127C161.473 106.21 159.536 106.055 157.602 106.022C156.984 106.012 156.361 106.102 155.749 106.065C154.599 105.996 153.297 106.286 152.517 105.199C152.494 105.165 152.239 105.252 151.988 105.302C152.201 105.568 152.378 105.792 152.557 106.016C152.502 106.104 152.449 106.193 152.393 106.282C151.204 105.891 150.015 105.499 148.827 105.109C148.852 104.989 148.875 104.871 148.899 104.754C151.885 104.634 154.873 104.514 158.068 104.387C157.471 103.436 157.069 102.974 155.825 103.314C154.744 103.609 153.503 103.48 152.334 103.57C151.227 103.655 150.123 103.779 148.827 103.903C148.277 103.227 147.689 102.052 146.128 103.469C145.803 103.763 144.747 103.484 144.026 103.471C143.561 103.463 143.091 103.427 142.631 103.459C140.573 103.603 139.142 104.17 141.009 106.325C141.108 106.439 141.078 106.633 141.112 106.809C136.965 106.809 132.904 106.809 128.658 106.809C128.693 106.352 128.736 105.779 128.792 105.062C127.503 105.01 126.16 104.956 124.814 104.902C124.788 104.777 124.761 104.654 124.736 104.531C126.034 104.396 127.334 104.26 128.632 104.125C128.651 104.017 128.67 103.91 128.689 103.803C126.841 103.49 124.993 103.176 122.932 102.828C121.965 103.534 119.234 103.537 118.646 102.897C117.128 103.071 115.813 103.273 114.486 103.359C112.463 103.489 110.433 103.62 108.408 103.598C106.486 103.575 104.562 103.215 102.647 103.263C100.672 103.313 98.7327 103.519 96.9134 102.644C96.8278 102.603 96.5975 102.744 96.4528 102.822C95.4994 103.334 94.6659 103.294 93.7924 102.197C93.6078 102.594 93.4537 102.926 93.309 103.235C91.975 102.284 90.9873 101.742 89.6818 102.918C89.2917 103.269 88.2069 103.118 87.4419 103.122C84.3247 103.141 81.2093 103.13 77.995 103.13C78.0502 103.431 78.1054 103.733 78.1834 104.151C76.9008 102.401 74.6533 102.142 73.6865 103.29C72.8016 103.158 71.9928 103.157 71.3172 102.902C70.6493 102.649 70.1221 102.136 69.5226 101.748C69.3627 101.644 69.1097 101.475 68.9917 101.517C66.9059 102.258 65.7298 100.458 63.9885 100.265C63.7639 100.239 63.5318 100.218 63.3205 100.153C61.2595 99.5125 59.1985 98.8716 57.1508 98.2055C56.9548 98.142 56.8387 97.9023 56.4277 97.4772C60.1177 98.2744 63.4214 99.0914 66.7822 99.6873C70.2058 100.295 73.6827 100.688 77.0378 101.287C77.9931 101.182 78.9466 101.042 79.9057 100.981C81.4415 100.884 82.9887 100.884 84.5207 100.749C85.0097 100.706 85.4608 100.363 85.8813 100.179C83.021 99.7535 80.2464 99.3126 77.4584 98.9352C75.3726 98.6531 73.2621 98.5008 71.1821 98.1989C69.475 97.9513 67.787 97.5977 66.1162 97.2164C65.8973 97.166 65.8212 96.6708 65.5947 96.2126C65.2617 96.5768 65.0523 96.8059 64.6965 97.1952C64.3977 95.8935 64.1294 94.7256 63.8363 93.4477C64.51 93.167 64.8373 92.8902 64.0266 92.1024C63.3833 91.4773 63.2634 90.4696 62.173 90.0723C61.4384 89.8035 60.7019 89.5321 59.9959 89.2156C59.4326 88.964 58.9149 88.6436 58.2108 88.2636C58.0909 88.3298 57.7845 88.4966 57.3697 88.7244C57.3697 87.763 57.6856 86.795 57.2878 86.129C56.8045 85.3186 55.4076 85.5477 54.9109 86.1396C52.9393 85.8006 51.1124 85.4854 49.0913 85.1371C49.0628 85.206 48.9086 85.5847 48.8097 85.8218C48.2787 85.9688 47.8486 86.0866 47.2682 86.2468C46.3224 85.3728 47.8601 85.2749 48.5014 84.4486C47.645 84.3784 47.0512 84.3294 46.2196 84.2605C45.7914 83.1085 42.7218 84.0341 43.1119 81.3579C42.1071 82.0399 41.5305 82.4318 40.9557 82.8225C40.8644 83.0396 40.773 83.2568 40.6836 83.4753C40.3391 83.0303 39.9928 82.5841 39.4961 81.9432C40.1431 81.7936 40.4857 81.7141 41.2374 81.5393C39.5608 80.8799 38.1849 80.3396 36.7937 79.7927C37.0468 79.2405 37.2638 78.7692 37.4941 78.2633C36.9783 78.0448 36.5482 77.862 36.0249 77.6409C35.8708 77.8793 35.709 78.1296 35.5187 78.4249C35.4121 78.2938 35.3398 78.1997 35.2599 78.1097C34.9972 77.8117 34.7042 77.2463 34.4758 77.2635C33.1227 77.3655 32.9305 76.4876 32.5271 75.7844C32.1046 75.0508 31.8572 74.2007 30.4794 74.4443C30.2586 74.4827 29.7429 74.0551 29.6496 73.7757C29.1872 72.38 28.2262 72.3098 26.8883 72.8898C26.6618 72.9878 26.3041 72.8672 26.0034 72.8474C26.1842 73.2552 26.4259 73.6472 26.4963 74.0603C26.5134 74.157 25.9577 74.3238 25.5771 74.4986C25.2631 73.7995 25.6551 72.5773 23.8434 73.1639C24.0527 73.5942 24.2601 74.0219 24.6446 74.8151C23.9709 74.3384 23.4095 74.1385 23.301 73.8273C22.9413 72.8024 22.1592 72.6263 21.0573 72.7481C18.4159 73.0408 15.782 73.156 13.1311 72.6859C11.7323 72.4383 10.208 72.6038 8.86822 72.2449C7.8025 71.9589 6.93277 71.1577 5.97553 70.5856C6.06307 70.4718 6.15062 70.3566 6.24007 70.2427C7.34575 70.3036 8.45525 70.3354 9.55713 70.4294C12.0425 70.6426 14.5203 70.9127 17.0057 71.1127C19.4759 71.31 21.9499 71.4875 24.4277 71.5735C24.8368 71.5881 25.402 71.1538 25.6494 70.8042C25.8226 70.5592 25.7122 70.011 25.48 69.7647C25.1451 69.4085 24.618 69.137 24.1099 68.949C23.1888 68.6074 22.1135 68.4855 21.3047 68.0234C20.5073 67.5678 19.9612 66.8025 19.4245 66.2887C19.7157 65.861 20.2142 65.4571 20.1324 65.175C20.0011 64.7327 19.6243 64.2839 18.7584 64.6891C18.4749 64.8215 17.7403 64.2733 17.0761 63.9754C16.8477 64.2058 16.5756 64.4799 16.2559 64.8003C14.977 64.1422 13.7667 63.2934 12.3736 62.863C10.8321 62.3877 9.12889 62.2539 7.48274 62.05C5.82898 61.8447 4.16004 61.7309 2.49486 61.5892C2.10474 61.5561 1.70697 61.5958 1.31875 61.5614C0.875335 61.523 0.439547 61.4382 -6.10352e-05 61.3733C0.00755123 61.2025 0.0170675 61.0317 0.0246797 60.8595C1.05043 60.8595 2.07618 60.8463 3.10002 60.8635C4.30657 60.882 5.56069 61.1098 6.70253 60.8979C7.51324 60.747 8.13931 59.971 8.91195 59.5619C9.38772 59.3116 10.0253 59.0361 10.522 59.1077C11.6429 59.2692 12.3641 58.7541 12.562 58.0854C12.7999 57.2816 13.3823 57.3001 14.0446 57.0843C14.6554 56.8843 15.135 56.3944 15.6736 56.0329C14.9999 55.7799 14.3338 55.339 13.6487 55.3191C12.7543 55.2926 11.8408 55.7496 10.9444 55.727C9.65604 55.6939 8.3772 55.4171 7.10024 54.9285C7.91285 54.9285 8.72359 54.9285 9.53239 54.9285C9.97009 53.7209 9.97005 53.7209 7.19729 53.3488C7.97945 53.2018 8.76355 53.0548 9.64657 52.8893C9.60089 52.5477 9.56091 52.2325 9.4886 51.683C11.0815 51.683 12.5906 51.6856 14.0997 51.6803C14.3528 51.6803 14.722 51.7372 14.8419 51.622C16.4576 50.0966 19.0229 50.3058 20.9469 49.1034C20.7852 48.1209 21.1163 47.6416 22.7301 47.5475C24.4124 47.4509 26.0452 46.6815 27.68 46.1598C27.8094 46.1187 27.7808 45.7215 27.7865 45.6857C26.7437 45.5705 25.8207 45.3864 24.9015 45.3944C24.1593 45.401 23.4266 45.6897 22.6768 45.7625C21.7824 45.8486 20.8613 45.932 19.9745 45.8486C18.4673 45.7056 17.0723 45.6606 16.4899 46.6921C15.232 46.6921 14.2824 46.6921 13.2509 46.6921C13.2509 46.4313 13.2509 46.1082 13.2509 45.8062C15.5175 45.3587 17.7498 44.9442 19.9554 44.4489C20.2181 44.3893 20.3436 43.8941 20.6158 43.469C20.8841 43.8769 21.1525 44.286 21.4494 44.7349C22.5912 44.4516 23.773 44.1987 24.911 43.8451C25.1889 43.759 25.3221 43.3406 25.5219 43.0758C25.1888 43.0811 24.8311 43.0241 24.5266 43.1062C24.009 43.2479 23.5256 43.477 23.0289 43.669C22.8995 43.575 22.77 43.481 22.6425 43.3856C23.1488 42.6719 23.6569 41.9581 24.2088 41.1795C24.4105 41.3623 24.6027 41.5357 24.8596 41.7701C25.0556 41.4721 25.2174 41.2272 25.3449 41.0325C26.1937 41.1331 26.9854 41.2272 28.1596 41.3676C27.6895 40.7624 27.4135 40.4075 27.0481 39.9387C27.3279 39.854 27.6819 39.8381 27.7732 39.7004C27.9255 39.466 28.0206 39.1297 27.9388 38.8834C27.857 38.6371 27.5296 38.4477 27.3108 38.2319C27.6762 38.1709 28.0396 38.0982 28.4088 38.0545C28.7457 38.0134 29.1454 38.0862 29.4156 37.9578C29.7068 37.8174 29.8799 37.5022 30.1045 37.2626C29.8419 37.1143 29.5868 36.9541 29.3147 36.8203C28.9379 36.6362 28.5497 36.472 27.9045 36.1807C29.408 35.8973 30.5364 35.6842 31.665 35.4723C31.6459 35.3134 31.6269 35.1544 31.6079 34.9942C31.1835 34.8419 30.7572 34.6896 30.3329 34.536C30.3252 34.4261 30.3176 34.3176 30.3119 34.2077C31.7144 34.0633 33.1341 33.9918 34.5119 33.7455C35.2694 33.6105 35.9488 33.1775 36.6682 32.8861C38.2077 32.2611 39.8158 31.7288 41.264 30.9793C41.951 30.6244 42.2022 29.6737 42.8892 29.3201C44.1871 28.6514 45.6449 28.1933 47.0608 27.6954C49.5443 26.8201 52.1248 26.109 54.5151 25.0814C56.3496 24.2935 58.1385 23.3361 59.3659 21.8067C59.6457 21.4584 60.4831 21.4558 61.0045 21.2082C61.4632 20.991 62.0341 20.7143 62.1977 20.3501C62.329 20.0561 62.0512 19.4113 61.7277 19.2497C61.3414 19.059 60.641 19.0882 60.1995 19.2537C58.7132 19.8125 57.2973 20.4997 55.8263 21.0903C54.3609 21.6795 52.8613 22.2106 51.1181 22.8634C51.3255 22.5297 51.375 22.3271 51.5235 22.2291C52.8632 21.3486 54.7568 21.3512 55.8035 19.7992C56.3344 19.01 58.3897 19.0524 59.5449 18.4367C62.7287 16.7404 66.6205 17.0992 69.7967 15.4731C69.7872 15.685 69.7795 15.8969 69.77 16.1088C70.5465 16.3643 71.3134 16.7973 72.1032 16.8264C72.8796 16.8556 73.6656 16.3868 74.4725 16.3007C75.4031 16.2001 76.3622 16.2888 77.31 16.2769C77.8676 16.2702 78.4251 16.2425 78.9808 16.2001C80.0218 16.1206 81.0666 16.0557 82.1019 15.9313C85.0421 15.579 87.9804 15.2136 90.9149 14.8256C92.386 14.631 93.8457 14.3753 95.2825 13.9106C91.7123 12.736 88.0337 14.3039 84.5092 13.5199C86.9394 13.2101 89.381 12.9453 91.7998 12.5772C93.7733 12.2766 95.7145 11.8157 97.688 11.5098C98.4016 11.3999 99.1704 11.5695 99.9126 11.5496C100.657 11.5297 101.399 11.433 102.145 11.3681C102.638 13.1518 105.373 13.4299 109.162 12.1865C108.172 11.8515 107.477 11.6158 106.739 11.3655C107.146 10.9894 107.546 10.6174 107.947 10.2466C107.894 10.1142 107.841 9.98176 107.786 9.84934C106.758 9.84934 105.728 9.84934 104.701 9.84934C104.706 9.70501 104.714 9.56064 104.72 9.4163C106.145 9.4163 107.572 9.4163 108.971 9.4163C108.825 9.74602 108.638 10.1605 108.52 10.424C109.329 10.6544 109.887 10.9007 110.471 10.9589C111.365 11.049 112.279 11.0358 113.183 11.0172C113.641 11.008 114.136 10.7643 114.549 10.8504C115.697 11.0888 116.292 10.6624 116.677 9.52889C117.28 11.4582 118.966 11.5985 120.534 11.6422C122.175 11.6886 123.832 11.498 125.469 11.3218C125.81 11.2861 126.089 10.861 126.398 10.6147C126.084 10.4638 125.775 10.1883 125.457 10.183C123.328 10.1446 121.196 10.1632 119.071 10.1632C119.202 9.09853 119.467 8.91178 120.806 9.42026C122.477 10.0545 123.992 9.67052 126.068 9.15541C125.183 8.79391 124.719 8.48542 124.207 8.41524C122.635 8.20072 121.05 7.97957 119.465 7.93985C117.223 7.88291 114.975 7.95973 112.734 8.02859C109.489 8.1279 106.235 8.16101 103.007 8.42187C98.63 8.77675 94.2738 9.33153 89.9063 9.77248C89.1774 9.84664 88.4295 9.78307 87.6911 9.78307C87.6797 9.67581 87.6684 9.56858 87.6569 9.46132C88.2545 9.42027 88.9244 9.51034 89.4363 9.31172C90.9435 8.72643 92.6296 8.24309 93.7981 7.31881C95.3853 6.06084 97.1494 6.36007 98.5063 6.90298C100.034 7.51608 101.433 7.28962 102.855 7.25917C106.265 7.18899 109.668 6.91891 113.074 6.75338C116.92 6.56667 120.768 6.42229 124.612 6.22101C125.159 6.19188 125.678 5.87413 126.228 5.81852C126.738 5.7682 127.292 5.83174 127.794 5.94694C129.113 6.25018 130.409 6.87518 131.722 6.8924C134.392 6.9255 137.076 6.69248 139.74 6.4634C140.619 6.38792 141.451 5.80131 142.319 5.7735C144.254 5.71259 146.197 5.8728 148.138 5.90855C148.724 5.91915 149.314 5.81978 150.003 5.47284C149.657 5.2676 149.183 4.82405 148.985 4.8982C147.683 5.38683 146.631 4.64788 145.468 4.53135C144.094 4.39364 143.613 3.7753 143.601 2.55308C145.912 2.79673 148.144 3.0311 150.327 3.26019C150.429 4.21227 150.519 5.01865 150.61 5.87275C152.612 5.94955 154.464 6.04623 156.316 6.06874C156.637 6.07272 157.191 5.79068 157.231 5.58543C157.29 5.28219 157.02 4.91143 156.824 4.59892C156.603 4.24801 156.306 3.93023 156.044 3.59786C156.54 3.47339 157.033 3.25087 157.534 3.2416C160.118 3.19128 162.708 3.12246 165.289 3.2125C166.495 3.25487 167.761 3.49591 168.861 3.90773C169.892 4.29572 169.295 4.91675 168.682 5.32195C167.949 5.8066 167.169 6.2396 166.48 6.88448C171.611 7.02749 176.656 8.12123 181.729 7.25521C181.769 7.0685 181.809 6.88179 181.847 6.69641C180.19 6.24618 178.532 5.796 176.699 5.29811C176.421 4.38707 176.724 3.96859 178.972 4.03745C183.499 4.17384 188.024 4.37913 192.544 4.62543C193.364 4.67045 194.16 5.05315 195.085 5.31136C194.797 5.66889 194.721 5.85294 194.636 5.85691C191.381 5.9933 188.127 6.12176 184.873 6.22901C183.988 6.25815 182.26 7.22873 182.174 7.64453C187.172 8.17288 192.175 8.71848 197.184 9.22565C199.342 9.44414 201.548 9.86653 203.664 9.6679C205.089 9.53548 206.469 9.52885 207.879 9.51693C208.477 9.51163 209.07 9.27591 209.535 9.17263C210.557 9.28783 211.546 9.59643 212.437 9.45607C213.86 9.23096 215.139 9.53545 216.498 9.64535C218.197 9.78307 220.066 9.47854 221.688 8.97138C223.756 8.32385 225.745 7.90409 227.945 8.25764C228.367 8.32518 228.874 8.02063 229.616 7.80876C230.929 8.76614 232.626 8.41653 234.36 7.62731C233.574 7.57037 232.758 7.60485 232.01 7.42873C231.399 7.28572 230.221 7.74919 230.24 6.60112C232.449 6.27934 234.554 5.97206 236.659 5.66617C236.808 5.64499 236.996 5.56561 237.103 5.61461C238.813 6.37866 240.597 6.07145 242.726 5.78013C242.256 7.16788 241.845 8.38083 241.398 9.70104C239.972 8.66023 238.503 8.66021 236.865 9.3607C236.117 9.68115 235.207 9.80823 234.254 9.56591C233.761 9.44011 233.112 9.74602 232.556 9.95126C240.551 11.1338 248.506 11.6529 256.165 9.42956C256.559 8.96874 256.877 8.24836 257.284 8.20996C257.775 8.16361 258.327 8.71981 258.879 8.97405C259.349 9.19121 259.857 9.35142 260.773 9.69571C261.466 10.7895 263.546 11.437 265.464 10.9007C266.227 10.6875 267.04 10.5975 267.829 10.4518C267.886 10.3326 267.944 10.2148 267.999 10.0956C266.979 9.80562 265.961 9.51564 265.041 9.25345C265.652 8.92638 266.295 8.58205 266.937 8.23776C266.868 8.06032 266.8 7.8842 266.729 7.70676C265.546 7.70676 264.36 7.70676 263.176 7.70676C263.182 7.55316 263.19 7.39823 263.195 7.24462C264.826 7.24462 266.457 7.24462 268.193 7.24462C267.934 7.51211 267.673 7.78359 267.032 8.44701C269.16 8.64564 270.897 8.85224 272.642 8.95287C273.459 9.00054 274.29 8.8562 275.114 8.78072C276.654 8.63771 276.161 7.67634 276.058 6.70174C276.526 7.36251 276.859 7.83255 277.185 8.29337C278.8 7.67365 280.083 6.74804 282.112 7.45913C283.324 7.88419 284.986 7.39955 286.445 7.32407C286.481 7.1612 286.516 6.99701 286.552 6.83413C286.019 6.61564 285.509 6.27137 284.951 6.20251C283.025 5.9668 281.088 5.74302 279.149 5.67814C277.539 5.62384 275.917 5.81851 274.298 5.8675C273.55 5.89001 272.798 5.7986 272.048 5.81052C270.132 5.83965 268.216 5.87146 266.301 5.95091C263.795 6.0542 261.292 6.20648 258.841 6.3336C258.729 6.68583 258.603 7.07783 258.478 7.46979C258.074 7.295 257.673 7.12018 257.269 6.94671C256.879 6.77854 256.468 6.44221 256.101 6.47399C254.58 6.60641 253.075 6.85138 251.467 7.06722C251.61 7.66045 251.707 8.06827 251.832 8.58602C251.035 8.63369 250.298 8.67871 249.467 8.7277C249.695 8.12917 249.853 7.71343 250.095 7.08047C248.026 7.40225 246.032 7.26844 245.432 9.49705C245.232 9.36992 245.033 9.24285 244.833 9.11573C244.966 8.68669 245.111 8.26033 245.227 7.82864C245.362 7.3281 245.472 6.82227 245.636 6.14561C246.298 7.34929 247.227 7.02082 248.091 6.57986C249.288 5.96941 250.441 5.29679 251.602 4.63602C253.119 3.77265 254.919 4.09175 256.173 4.60951C257.848 5.30206 259.414 5.02269 260.988 4.99753C264.857 4.9353 268.72 4.65983 272.585 4.47842C276.837 4.27846 281.092 4.09837 285.341 3.87856C285.834 3.8534 286.316 3.63359 286.799 3.49191C287.536 3.27739 288.095 3.17145 288.896 3.68523C290.729 4.86111 293.022 4.69688 295.174 4.64523C297.538 4.58829 299.894 4.3407 302.248 4.13016C302.621 4.09705 302.949 3.73688 303.325 3.68523C304.225 3.56341 305.143 3.53693 306.071 3.64021C308.121 2.50936 310.408 4.01361 312.572 3.42038C312.721 2.5345 312.336 2.51463 311.288 2.48947C309.742 2.45372 308.18 2.00615 306.698 1.5652C306.334 1.45661 306.248 0.688576 305.931 0C308.726 0.274106 311.217 0.517754 313.68 0.758755C313.775 3.53954 313.775 3.53296 316.965 3.5952C318.099 3.61771 319.235 3.72232 320.365 3.69186C320.742 3.68127 321.317 3.42703 321.42 3.17412C321.524 2.91987 321.195 2.50671 320.98 2.20215C320.693 1.79695 320.333 1.4288 320.004 1.04478C320.567 0.942822 321.127 0.764046 321.692 0.752128C324.567 0.691216 327.449 0.587939 330.318 0.679308C331.675 0.721682 333.087 1.02363 334.341 1.4712C335.367 1.83668 334.768 2.49747 334.159 2.89075C333.399 3.3807 332.572 3.79646 331.772 4.24404C331.77 4.38175 331.768 4.52077 331.767 4.65849C333.624 4.7578 335.483 4.85578 337.341 4.95907C339.377 5.07162 341.413 5.26498 343.451 5.28219C345.246 5.29808 347.041 5.11933 348.835 5.02663C348.858 4.80152 348.883 4.57777 348.906 4.35266C347.001 3.88125 345.094 3.40847 343.05 2.90264C342.884 1.80091 343.151 1.48447 345.012 1.53214C348.253 1.61424 351.49 1.8221 354.729 1.95452C356.727 2.03529 358.735 2.00219 360.724 2.1611C361.658 2.23657 362.558 2.64178 363.704 2.96091ZM230.571 102.642C230.558 102.713 230.546 102.785 230.533 102.856C232.99 103.282 235.445 103.709 237.949 104.143C238.568 104.028 239.339 103.798 240.119 103.762C241.194 103.714 242.279 103.821 243.36 103.849C245.118 103.894 246.559 103.486 247.396 102.642C241.716 102.642 236.143 102.642 230.571 102.642ZM220.658 100.654C220.649 100.782 220.639 100.911 220.63 101.039C224.316 102.244 228.097 102.419 232.008 101.537C231.015 101.098 230 100.727 228.942 100.504C227.294 100.159 225.581 99.3801 224.167 101.047C223.692 101.607 222.894 101.712 222.673 100.707C222.624 100.48 222.525 100.263 222.438 100.004C221.764 100.25 221.212 100.453 220.658 100.654ZM340.231 105.992C340.513 107.088 341.44 107.255 342.53 107.092C343.824 106.899 345.099 106.618 346.39 106.401C347.461 106.221 348.542 106.076 349.617 105.916C347.798 104.503 343.626 104.685 340.231 105.992ZM168.927 103.014C169.468 103.929 170.157 104.215 171.148 104.021C172.29 103.799 173.428 103.563 174.574 103.362C175.55 103.19 176.536 103.059 177.516 102.909C177.48 102.697 177.443 102.485 177.405 102.273C174.61 101.875 171.822 101.626 168.927 103.014ZM318.169 107.058C318.181 107.229 318.192 107.399 318.205 107.57C318.921 107.722 319.878 108.199 320.312 107.971C321.867 107.152 323.403 107.516 324.994 107.614C325.936 107.672 326.897 107.508 327.848 107.444C327.884 107.258 327.92 107.072 327.957 106.886C327.311 106.641 326.664 106.184 326.023 106.19C324.103 106.209 322.179 106.376 320.266 106.556C319.553 106.622 318.868 106.884 318.169 107.058ZM287.459 8.52517C284.514 8.06302 281.686 8.06035 278.698 8.36756C279.796 9.94731 285.956 9.98839 287.459 8.52517ZM31.8192 43.2347C32.7555 42.8732 33.509 42.5302 34.3064 42.2865C35.3112 41.9793 35.3132 41.6006 34.6224 40.9994C33.4082 39.9414 32.784 39.8752 31.4347 40.7531C31.0465 41.006 30.6564 41.2603 30.2643 41.5159C30.4451 42.1038 30.6088 42.6348 30.6887 42.8983C31.2748 43.0731 31.6269 43.1777 31.8192 43.2347ZM27.8608 43.1883C27.541 43.8094 27.3146 44.2516 27.0862 44.6939C27.1795 44.7945 27.2727 44.8952 27.3679 44.9971C28.3727 44.7535 29.5659 44.6952 30.2967 44.1761C30.6031 43.9577 29.9294 42.7619 29.701 42.0111C29.5469 42.0482 29.3946 42.0839 29.2405 42.121C29.1606 42.5898 29.0825 43.0572 29.0026 43.5259C28.8694 43.5167 28.7362 43.5088 28.6011 43.4995C28.6011 43.1155 28.6011 42.7301 28.6011 42.2654C27.8874 42.3832 27.2803 42.4374 26.7113 42.595C26.4315 42.6718 26.228 42.938 25.9882 43.1181C26.3174 43.2042 26.6409 43.3313 26.9778 43.3631C27.2137 43.3829 27.4649 43.2718 27.8608 43.1883ZM430.964 102.532C429.531 102.467 428.345 102.411 427.158 102.357C427.158 102.43 427.158 102.501 427.158 102.574C428.438 103.135 429.719 103.697 431.314 104.395C431.158 103.566 431.046 102.969 430.964 102.532ZM506.283 101.489C506.333 100.589 506.367 99.8157 505.238 99.8581C504.763 99.8753 503.893 100.494 503.929 100.776C504.093 102.121 505.318 101.201 506.283 101.489ZM486.208 100.955C486.809 102.321 487.894 102.495 488.994 101.435C488.684 101.063 488.368 100.684 488.082 100.343C487.428 100.556 486.868 100.739 486.208 100.955ZM301.356 7.16251C301.392 6.98374 301.426 6.80373 301.462 6.62496C300.625 6.43561 299.793 6.20779 298.941 6.08596C298.773 6.06213 298.362 6.43822 298.355 6.63685C298.347 6.85004 298.674 7.25393 298.87 7.26055C299.696 7.29365 300.528 7.20621 301.356 7.16251ZM139.062 9.32893C139.089 9.17003 139.116 9.00978 139.142 8.85087C138.393 8.66151 137.652 8.42843 136.887 8.31058C136.691 8.28012 136.229 8.61383 136.225 8.78597C136.219 9.0177 136.529 9.44812 136.724 9.45607C137.498 9.4852 138.282 9.38323 139.062 9.32893ZM494.724 100.649C494.547 100.671 494.372 100.692 494.195 100.715C494.562 101.092 494.929 101.471 495.297 101.848C495.71 101.296 496.121 100.745 496.532 100.193C496.42 100.144 496.309 100.096 496.197 100.047C495.706 100.247 495.215 100.447 494.724 100.649ZM249.83 11.3602C249.798 11.5244 249.767 11.6899 249.737 11.8541C250.797 11.964 251.859 12.0753 252.921 12.1852C252.945 11.9945 252.97 11.8051 252.993 11.6144C251.939 11.5297 250.884 11.445 249.83 11.3602Z" fill="#18181B"/>
<path d="M9.08734 86.1469C9.91962 86.0129 10.4833 85.952 11.0301 85.823C11.3156 85.756 11.5721 85.5679 11.8406 85.4339C11.6229 85.1909 11.4511 84.837 11.1801 84.724C10.2221 84.325 9.21073 84.053 8.2587 83.644C7.52924 83.331 6.86147 82.906 6.02435 83.302C5.95056 83.337 5.58405 82.997 5.60582 82.95C5.70744 82.735 5.90217 82.398 6.0558 82.401C7.06833 82.422 8.07965 82.52 9.02443 82.588C8.7583 82.978 8.51997 83.355 9.45507 83.558C10.2559 83.732 10.9733 84.274 11.7729 84.474C12.5011 84.656 13.2886 84.624 14.0508 84.641C15.125 84.665 16.1992 84.6469 17.3363 84.6469C17.3037 85.5279 17.4283 85.959 18.2944 85.753C18.7105 85.654 19.2332 86.0829 19.6844 86.0379C20.5154 85.9569 21.3489 85.566 21.9804 86.493C22.0336 86.571 22.3263 86.4849 22.4703 86.4779C22.5235 86.8469 22.5683 87.1599 22.6324 87.6079C22.0505 87.5609 21.4808 87.513 20.911 87.469C19.9662 87.396 19.0202 87.282 18.0742 87.284C17.8287 87.284 17.5831 87.649 17.4065 87.791C17.2649 87.533 17.1186 87.266 16.971 86.998C16.5984 87.215 16.2258 87.433 15.7588 87.705C15.1044 86.89 14.087 87.114 13.0128 87.273C12.2011 87.393 11.3471 87.2709 10.5172 87.2019C9.518 87.1179 8.52361 86.977 7.52681 86.859C6.79857 86.772 6.07033 86.6829 5.25861 86.5849C6.30138 85.4859 8.47765 85.4339 9.08734 86.1469Z" fill="#18181B"/>
<path d="M53.937 35.4489C52.8931 34.5399 51.8721 34.9409 50.7773 35.3889C50.1482 35.6469 49.3873 35.559 48.7014 35.706C46.3123 36.218 43.9243 36.742 41.5472 37.304C39.4169 37.808 37.3012 38.3699 35.1781 38.9069C36.0285 37.8109 37.577 37.587 38.6209 36.503C39.5754 35.513 41.5121 35.5519 42.8573 34.8369C44.2388 34.1019 45.7776 34.729 47.2691 34.11C48.2937 34.947 49.5252 34.49 50.5825 33.89C51.589 33.318 52.7092 33.364 53.7253 32.953C53.9261 32.872 54.3931 33.0099 54.4705 33.1729C54.577 33.3999 54.4608 33.7529 54.3858 34.0379C54.266 34.4959 54.1016 34.9439 53.937 35.4489Z" fill="#18181B"/>
<path d="M7.30788 50.9829C8.95792 49.8679 9.94505 49.9499 10.4277 51.4039C10.8862 51.1029 11.3773 50.89 11.7185 50.533C12.2519 49.974 12.8628 50.477 13.429 50.291C14.0786 50.078 14.7899 50.0519 15.4831 49.9439C15.852 50.4909 15.7008 50.9709 15.1746 51.1669C13.6117 51.7489 12.0148 52.2349 10.441 52.7869C10.0551 52.9229 9.65591 53.11 9.35106 53.375C8.22604 54.35 6.70425 54.0469 5.46914 54.6419C5.23325 54.7559 5.01185 54.899 4.52191 55.177C5.36629 55.331 5.89374 55.427 6.42238 55.523C6.43327 55.651 6.44294 55.78 6.45261 55.908C4.89693 56.157 3.34007 56.406 1.78439 56.656C1.72995 56.619 1.6755 56.581 1.62107 56.544C2.11583 56.236 2.58036 55.7449 3.11142 55.6569C4.34894 55.4539 4.74091 54.6539 4.86067 53.7509C6.29175 52.8439 8.1317 52.92 9.05591 51.174C8.44985 51.109 7.89096 51.0469 7.30788 50.9829Z" fill="#18181B"/>
<path d="M438.757 88.124C438.268 88.866 438.969 89.322 439.442 89.715C438.893 90.115 438.488 90.623 438.009 90.705C437.404 90.808 436.739 90.564 435.997 90.455C436.01 90.383 435.971 90.6 435.929 90.818C435.319 90.621 435.032 89.991 435.379 89.14C435.616 88.559 435.473 88.458 434.975 88.231C433.994 87.784 433.117 86.942 432.11 86.768C431.085 86.591 430.258 86.226 429.431 85.601C429.199 85.855 428.991 86.082 428.542 86.572C428.487 85.93 428.456 85.561 428.424 85.192C428.688 85.215 428.961 85.203 429.214 85.266C430.902 85.688 432.586 86.126 434.307 86.569C434.429 86.254 434.527 86.004 434.752 85.425C435.256 87.96 437.008 87.959 438.757 88.124Z" fill="#18181B"/>
<path d="M322.677 31.7299C319.574 31.8229 316.558 31.9149 313.542 32.0039C312.444 32.0369 312.444 32.0339 312.397 32.5209C311.896 32.3769 311.382 32.1919 310.853 32.0849C309.195 31.7479 307.53 31.4419 305.869 31.1159C305.832 31.1079 305.811 31.0119 305.749 30.8959C307.557 30.8959 309.329 30.9029 311.102 30.8939C314.007 30.8799 316.913 30.8489 319.817 30.8389C320.831 30.8359 321.813 30.9729 322.677 31.7299Z" fill="#18181B"/>
<path d="M401.85 24.9089C401.471 25.0549 401.012 25.0959 400.769 25.3469C399.569 26.5809 397.952 26.9369 396.422 27.4279C396.091 27.5339 395.505 27.0609 395.145 26.7349C395.012 26.6149 395.09 25.9509 395.243 25.8729C396.331 25.3209 397.449 24.8229 398.586 24.3799C399.1 24.1799 399.678 24.1459 400.227 24.0379C401.124 23.8619 401.625 24.3239 401.85 24.9089Z" fill="#18181B"/>
<path d="M255.764 29.9149C257.295 29.6069 258.432 29.4219 259.545 29.1409C260.522 28.8939 262.273 29.2879 262.721 29.8179C263.421 29.5689 264.046 29.3459 264.842 29.0629C264.635 29.7399 264.497 30.19 264.335 30.718C264.154 30.731 263.855 30.8449 263.649 30.7529C262.733 30.3439 261.944 30.9019 261.099 31.0169C260.875 31.0479 260.642 31.1099 260.427 31.0739C259.188 30.8689 257.95 30.656 256.72 30.406C256.441 30.349 256.19 30.1399 255.764 29.9149Z" fill="#18181B"/>
<path d="M276.675 27.07C276.466 27.138 276.165 27.1409 276.064 27.2849C275.139 28.6009 273.566 28.7439 272.289 29.4129C271.682 29.7309 271.17 29.4639 270.851 28.9559C270.716 28.7429 270.733 28.168 270.866 28.096C271.863 27.552 272.889 27.0489 273.941 26.6229C274.448 26.4169 275.039 26.3059 275.581 26.3339C276.009 26.3559 276.421 26.6569 276.841 26.8339C276.785 26.9129 276.731 26.991 276.675 27.07Z" fill="#18181B"/>
<path d="M455.916 78.596C455.091 78.689 454.295 78.802 453.493 78.862C452.776 78.915 452.046 78.975 451.339 78.892C451.11 78.865 450.793 78.411 450.762 78.125C450.682 77.411 451.36 76.807 452.12 76.796C453.854 76.773 455.257 77.418 455.916 78.596Z" fill="#18181B"/>
<path d="M406.535 38.4459C405.762 40.0509 405.041 40.2769 403.585 39.6809C402.682 39.3109 401.706 39.1179 400.781 38.7909C400.49 38.6879 400.114 38.4559 400.03 38.1989C399.514 36.6269 399.16 36.3559 397.573 36.4279C397.335 36.4389 397.088 36.2889 396.845 36.2139C397.099 36.1229 397.36 35.9379 397.606 35.9579C398.251 36.0099 398.914 36.0789 399.518 36.2889C399.797 36.3849 400.051 36.7969 400.15 37.1179C400.398 37.9169 400.618 38.5569 401.716 38.4149C402.335 38.3349 402.996 38.6989 403.644 38.7169C404.215 38.7319 404.789 38.5229 405.367 38.4539C405.724 38.4119 406.091 38.4459 406.535 38.4459Z" fill="#18181B"/>
<path d="M386.554 31.9849C386.554 31.6179 386.554 31.1059 386.554 30.6509C387.841 30.7579 389.085 30.841 390.32 30.994C390.44 31.009 390.647 31.618 390.575 31.682C389.932 32.254 389.243 32.779 388.537 33.273C388.463 33.325 388.181 33.104 388.011 32.989C387.548 32.679 387.094 32.3579 386.554 31.9849Z" fill="#18181B"/>
<path d="M391.538 33.755C392.055 35.088 393.007 34.6359 393.869 34.4639C394.4 34.3579 394.737 34.4109 394.902 35.0189C395.075 35.6479 394.797 35.8319 394.264 35.9619C393.82 36.0689 393.413 36.3449 392.968 36.4229C392.368 36.5289 391.774 36.5369 391.744 35.6209C391.738 35.4289 391.328 35.1429 391.064 35.0869C390.42 34.9499 389.754 34.9219 389.107 34.7249C389.805 33.9709 391.007 35.19 391.538 33.755Z" fill="#18181B"/>
<path d="M15.2181 54.3679C15.529 55.9859 14.7802 56.6 12.8011 56.547C12.0934 56.528 11.4184 56.4739 10.7494 57.0249C10.5668 57.1749 9.73209 57.7759 8.96877 57.2529C8.57924 56.9859 7.81834 57.2499 7.22679 57.2979C6.84936 57.3289 6.47554 57.402 6.05577 57.237C6.77313 57.079 7.48443 56.8849 8.20905 56.7719C9.34859 56.5919 10.4736 56.5059 11.5188 55.8469C12.0692 55.4999 12.8894 55.584 13.5874 55.468C14.2757 55.353 15.0826 55.4179 15.2181 54.3679Z" fill="#18181B"/>
<path d="M418.248 40.2609C418.943 39.0569 420.752 40.2339 421.042 38.5549C421.65 39.0449 422.174 39.7299 422.602 38.9359C423.489 38.9359 424.187 38.9359 424.885 38.9359C424.239 39.7059 423.756 40.366 422.64 40.2C421.467 40.025 420.235 40.261 419.027 40.307C418.793 40.316 418.558 40.2809 418.248 40.2609Z" fill="#18181B"/>
<path d="M304.361 109.723C303.557 109.723 302.751 109.679 301.951 109.736C301.149 109.793 300.357 109.986 299.556 110.04C299.361 110.053 299.146 109.757 298.939 109.603C298.958 109.514 298.978 109.426 298.997 109.337C300.473 109.026 301.938 108.626 303.429 108.454C303.946 108.394 304.528 108.9 305.425 109.303C304.939 109.644 304.662 109.838 304.386 110.032C304.378 109.929 304.369 109.826 304.361 109.723Z" fill="#18181B"/>
<path d="M126.741 31.2249C127.37 30.3359 127.998 29.4469 128.62 28.5679C129.094 28.8569 129.48 29.1559 129.913 29.3439C130.622 29.6529 130.779 30.2519 130.083 30.5809C129.116 31.0389 128.03 31.2489 126.995 31.5659C126.91 31.4519 126.826 31.3389 126.741 31.2249Z" fill="#18181B"/>
<path d="M444.322 77.92C444.817 77.261 445.312 76.601 445.851 75.883C446.059 75.904 446.442 75.943 447.064 76.006C447.282 76.392 447.648 77.035 448.046 77.734C447.643 77.774 447.31 77.764 447.003 77.848C446.682 77.936 446.389 78.114 446.024 78.28C446.114 78.465 446.213 78.673 446.312 78.88C446.237 78.918 446.162 78.955 446.087 78.993C445.795 78.495 445.503 77.997 445.21 77.499C445.157 77.396 445.105 77.292 445.052 77.189C444.927 77.537 444.804 77.885 444.679 78.233C444.561 78.129 444.442 78.024 444.322 77.92Z" fill="#18181B"/>
<path d="M287.845 32.4819C288.266 32.4379 288.514 32.4109 288.828 32.3779C288.828 32.0019 288.828 31.6649 288.828 31.2959C289.197 31.2959 289.52 31.3709 289.789 31.2819C290.594 31.0149 290.724 31.7599 291.008 32.1419C291.124 32.2989 290.847 32.816 290.662 33.114C290.456 33.444 290.149 33.7109 289.852 34.0449C289.564 33.4829 289.32 32.4919 288.224 33.4619C288.091 33.1239 287.993 32.8699 287.845 32.4819Z" fill="#18181B"/>
<path d="M29.9934 32.8469C30.5946 32.0079 31.197 31.1689 31.7801 30.3569C32.3462 30.7059 32.8567 31.0209 33.4652 31.3959C33.0781 33.2319 31.3216 32.5249 30.2801 33.1209C30.1845 33.0299 30.0889 32.9379 29.9934 32.8469Z" fill="#18181B"/>
<path d="M167.069 109.163C167.006 107.986 168.011 108.438 168.482 108.392C169.494 108.294 170.532 108.414 171.554 108.503C172.209 108.56 172.756 108.819 172.744 109.408C170.849 109.326 168.997 109.246 167.069 109.163Z" fill="#18181B"/>
<path d="M239.604 28.5449C240.619 28.4719 241.514 28.4509 242.395 28.3279C242.965 28.2479 243.444 28.0209 243.912 28.6639C244.155 28.9979 244.751 29.0759 245.454 29.3869C244.483 29.5349 243.774 29.6429 242.913 29.7749C242.388 29.2259 241.543 28.9489 240.632 29.1239C239.876 29.2689 239.627 29.0009 239.604 28.5449Z" fill="#18181B"/>
<path d="M440.639 59.3439C442.221 60.1179 443.34 60.9959 444.154 62.2219C444.097 62.2869 444.04 62.3519 443.984 62.4169C443.843 62.2899 443.719 62.14 443.56 62.041C443.366 61.919 443.144 61.841 442.935 61.744C442.897 62.008 442.767 62.304 442.843 62.528C442.992 62.963 443.258 63.3589 443.476 63.7709C443.361 63.8319 443.245 63.8929 443.13 63.9539C442.346 62.5029 441.561 61.0499 440.639 59.3439Z" fill="#18181B"/>
<path d="M6.96786 55.2319C9.27719 54.7699 11.3966 53.793 13.7193 54.135C11.4934 54.424 9.49131 56.1549 6.96786 55.2319Z" fill="#18181B"/>
<path d="M365.383 30.4949C363.974 30.0379 362.29 30.38 360.963 28.898C362.528 29.061 363.876 29.1589 365.202 29.3809C365.422 29.4179 365.551 29.9969 365.723 30.3259C365.609 30.3819 365.496 30.4389 365.383 30.4949Z" fill="#18181B"/>
<path d="M136.733 31.2869C136.235 31.3229 135.777 31.2659 135.4 31.4129C135.105 31.5279 134.908 31.8969 134.596 32.2299C134.349 31.0479 133.646 30.7579 131.904 31.0059C131.817 30.7629 131.724 30.5059 131.614 30.2019C131.781 30.1879 131.872 30.163 131.958 30.177C132.422 30.251 132.885 30.4109 133.345 30.3969C133.964 30.3779 134.618 30.0589 135.187 30.1859C135.71 30.3039 136.138 30.8409 136.733 31.2869Z" fill="#18181B"/>
<path d="M63.2119 106.808C63.0776 105.77 63.9704 106.124 64.3974 106.086C67.0249 105.851 68.0265 106.17 68.1934 107.027C66.5676 106.956 64.9055 106.883 63.2119 106.808Z" fill="#18181B"/>
<path d="M22.2284 46.994C22.2574 46.436 22.4098 46.3269 23.0497 46.2959C24.1735 46.2429 25.2841 45.866 26.397 45.617C26.6172 45.568 26.8289 45.48 27.0466 45.409C27.268 46.243 26.7345 46.708 25.7377 46.737C24.5873 46.77 23.4369 46.901 22.2284 46.994Z" fill="#18181B"/>
<path d="M9.97274 58.6029C9.11989 58.6029 8.51746 58.591 7.91866 58.633C7.88237 58.636 7.87753 59.0669 7.86181 59.2399C6.78517 59.1549 5.61659 59.0629 4.43592 58.9699C4.40568 59.0089 4.49398 58.769 4.6222 58.744C5.47263 58.582 6.33636 58.4849 7.18799 58.3269C7.63074 58.2449 8.07107 58.1109 8.49084 57.9439C9.21061 57.6589 9.51668 58.0899 9.97274 58.6029Z" fill="#18181B"/>
<path d="M433.723 82.674C434.21 84.615 435.915 83.744 437.108 84.207C436.729 85.022 436.173 85.205 435.344 85.019C433.717 84.653 433.71 84.685 433.723 82.674Z" fill="#18181B"/>
<path d="M273.015 111.336C271.591 111.425 270.166 111.514 268.742 111.602C268.732 111.497 268.722 111.392 268.712 111.288C269.946 111.058 271.174 110.795 272.416 110.627C272.668 110.593 272.968 110.916 273.246 111.074C273.168 111.161 273.091 111.248 273.015 111.336Z" fill="#18181B"/>
<path d="M5.54403 78.088C6.5626 78.088 7.5824 78.088 8.72194 78.088C8.66508 78.351 8.69171 78.7879 8.51993 78.8909C8.2792 79.0339 7.88846 78.949 7.56547 78.924C7.00417 78.882 6.43803 78.843 5.88762 78.734C5.70132 78.697 5.55615 78.4509 5.39163 78.2999C5.44244 78.2299 5.49322 78.159 5.54403 78.088Z" fill="#18181B"/>
<path d="M258.778 111.022C259.27 111.231 259.761 111.44 260.232 111.64C259.368 112.26 256.374 112.54 256.047 112.13C256.945 111.85 257.897 111.552 258.849 111.255C258.825 111.177 258.802 111.1 258.778 111.022Z" fill="#18181B"/>
<path d="M253.184 30.3479C252.417 29.1149 251.578 30.325 250.806 30.06C250.605 29.991 250.37 29.923 250.242 29.776C250.156 29.677 250.229 29.4379 250.231 29.2619C250.432 29.2839 250.634 29.3329 250.832 29.3219C251.367 29.2909 251.905 29.263 252.434 29.182C253.542 29.012 253.54 28.9989 253.184 30.3479Z" fill="#18181B"/>
<path d="M290.956 33.901C292.543 33.388 292.791 33.486 293.308 34.776C292.194 35.242 291.656 35.055 290.956 33.901Z" fill="#18181B"/>
<path d="M152.16 28.003C153.515 27.776 154.844 27.0539 156.213 27.7279C154.844 27.5929 153.537 28.713 152.16 28.003Z" fill="#18181B"/>
<path d="M21.4588 95.2039C22.6262 95.3669 23.7936 95.5299 24.961 95.6929C24.9561 95.8059 24.9501 95.92 24.9452 96.033C24.3367 96.085 23.7186 96.225 23.121 96.164C22.5149 96.101 21.9294 95.839 21.3355 95.664C21.3766 95.511 21.4177 95.3569 21.4588 95.2039Z" fill="#18181B"/>
<path d="M142.936 109.549C143.787 109.246 144.616 108.95 145.629 108.589C145.813 108.67 146.244 108.86 146.637 109.034C145.777 109.654 143.22 109.921 142.936 109.549Z" fill="#18181B"/>
<path d="M143.913 31.6679C143.076 31.7169 142.437 31.7759 141.798 31.7819C141.575 31.7839 141.331 31.6919 141.141 31.5719C141.069 31.5259 141.119 31.283 141.113 31.13C141.33 31.163 141.55 31.2359 141.763 31.2199C142.236 31.1859 142.742 31.1979 143.171 31.0299C144.499 30.5119 143.96 31.3349 143.913 31.6679Z" fill="#18181B"/>
<path d="M0.532174 77.174C1.37413 77.411 2.21608 77.648 3.24312 77.937C2.9165 78.543 2.65881 79.022 2.39993 79.5C2.03097 78.448 2.01524 77.2499 0.251492 77.6729C0.345849 77.5069 0.439027 77.341 0.532174 77.174Z" fill="#18181B"/>
<path d="M375.81 109.363C374.366 108.811 373.482 110.616 371.926 110.051C372.863 109.575 373.633 109.127 374.45 108.79C374.953 108.582 375.533 108.53 375.81 109.363Z" fill="#18181B"/>
<path d="M154.256 108.744C155.205 108.513 156.148 108.229 157.111 108.077C157.516 108.013 158.217 107.777 158.226 108.722C156.89 108.817 155.586 108.91 154.282 109.003C154.273 108.917 154.264 108.83 154.256 108.744Z" fill="#18181B"/>
<path d="M282.982 33.695C284.321 33.758 285.48 33.812 286.965 33.882C286.578 34.13 286.36 34.3889 286.135 34.3939C285.183 34.4159 284.228 34.376 283.276 34.315C283.188 34.308 283.12 33.996 282.982 33.695Z" fill="#18181B"/>
<path d="M294.468 109.323C295.264 109.138 296.069 108.783 296.854 108.823C297.425 108.852 297.664 109.434 297.321 109.669C296.177 109.669 295.388 109.669 294.598 109.669C294.555 109.554 294.511 109.439 294.468 109.323Z" fill="#18181B"/>
<path d="M26.4513 43.0139C26.4622 42.9099 26.5021 42.5569 26.5493 42.1259C26.8565 42.1769 27.1239 42.2209 27.3441 42.2579C27.3852 43.6449 26.1247 43.808 25.3964 44.479C25.3178 44.399 25.2392 44.319 25.1605 44.239C25.5222 43.897 25.8827 43.5539 26.4513 43.0139Z" fill="#18181B"/>
<path d="M303.005 30.9509C303.964 30.9509 304.676 30.9509 305.517 30.9509C305.282 31.4889 305.12 31.857 305.003 32.127C304.402 31.773 303.808 31.4229 303.005 30.9509Z" fill="#18181B"/>
<path d="M276.619 32.5549C275.789 32.3489 275.301 32.2269 274.643 32.0639C274.822 31.6849 274.904 31.2699 275.157 31.0739C275.302 30.9609 275.815 31.1119 275.997 31.3019C276.248 31.5679 276.348 31.9809 276.619 32.5549Z" fill="#18181B"/>
<path d="M305.315 34.8619C304.633 34.5359 304.08 34.273 303.338 33.919C304.156 33.609 304.709 33.3989 305.411 33.1329C305.379 33.6879 305.354 34.1369 305.315 34.8619Z" fill="#18181B"/>
<path d="M269.691 31.4589C269.931 30.8689 270.109 30.4359 270.253 30.0849C270.494 30.0849 270.777 30.0849 271.054 30.0849C271.126 30.4799 271.204 30.903 271.281 31.325C270.795 31.365 270.276 31.4089 269.691 31.4589Z" fill="#18181B"/>
<path d="M404.172 31.4639C403.925 31.5539 403.517 31.7809 403.457 31.7109C403.029 31.2089 402.673 30.647 402.294 30.104C402.399 30.01 402.504 29.9159 402.611 29.8219C403.157 30.2549 403.703 30.6879 404.25 31.1199C404.223 31.2349 404.198 31.3489 404.172 31.4639Z" fill="#18181B"/>
<path d="M275.096 29.4999C275.59 29.4999 276.029 29.4269 276.423 29.5289C276.638 29.5849 276.829 29.9179 276.917 30.1659C276.943 30.2379 276.591 30.5569 276.391 30.5789C275.658 30.6579 275.117 30.4119 275.096 29.4999Z" fill="#18181B"/>
<path d="M53.302 30.234C53.4931 29.4 55.4674 28.99 56.6964 29.542C55.5533 29.775 54.4282 30.004 53.302 30.234Z" fill="#18181B"/>
<path d="M382.388 106.849C381.842 108.568 381.306 108.938 380.114 108.641C380.878 108.039 381.633 107.444 382.388 106.849Z" fill="#18181B"/>
<path d="M428.239 89.978C428.524 89.134 428.751 88.46 428.995 87.732C429.756 88.778 429.853 89.282 428.239 89.978Z" fill="#18181B"/>
<path d="M312.587 108.956C313.562 108.878 314.537 108.801 315.677 108.71C315.699 108.834 315.749 109.108 315.801 109.395C314.644 109.322 313.61 109.256 312.577 109.19C312.581 109.111 312.584 109.034 312.587 108.956Z" fill="#18181B"/>
<path d="M438.302 84.901C437.446 84.577 437.814 83.899 437.729 83.33C438.111 83.232 438.457 83.143 438.77 83.062C438.628 83.614 438.487 84.17 438.302 84.901Z" fill="#18181B"/>
<path d="M277.381 31.7409C277.744 32.1369 278.126 32.517 278.454 32.94C278.524 33.031 278.445 33.3059 278.351 33.4349C278.284 33.5269 277.976 33.584 277.948 33.541C277.608 33.033 277.3 32.5039 276.984 31.9799C277.117 31.9009 277.249 31.8209 277.381 31.7409Z" fill="#18181B"/>
<path d="M358.923 105.989C357.888 106.108 356.853 106.228 355.818 106.347C355.805 106.24 355.791 106.133 355.778 106.026C356.811 105.891 357.844 105.756 358.877 105.621C358.894 105.744 358.909 105.867 358.923 105.989Z" fill="#18181B"/>
<path d="M291.652 31.906C292.486 32.208 293.187 32.4609 293.928 32.7299C293.333 33.4349 292.641 33.174 291.652 31.906Z" fill="#18181B"/>
<path d="M35.794 37.065C35.1637 37.268 34.6302 37.4389 34.0979 37.6109C34.0435 37.5209 33.9903 37.4309 33.9358 37.3399C34.4742 36.9849 35.0113 36.6299 35.6488 36.2089C35.7081 36.5649 35.7528 36.826 35.794 37.065Z" fill="#18181B"/>
<path d="M0.0906659 53.3999C1.0548 53.0119 1.76371 52.7269 2.498 52.4309C2.35284 53.2299 1.53143 53.6079 0.0906659 53.3999Z" fill="#18181B"/>
<path d="M365.358 33.1199C365.475 32.4759 365.594 31.832 365.711 31.187C365.852 31.205 365.993 31.2229 366.134 31.2399C366.058 31.8949 365.983 32.5499 365.907 33.2039C365.723 33.1769 365.54 33.1489 365.358 33.1199Z" fill="#18181B"/>
<path d="M46.1272 110.594C45.2852 110.366 44.442 110.139 43.6001 109.911C43.6219 109.827 43.6424 109.743 43.6642 109.66C44.5267 109.855 45.388 110.05 46.2506 110.245C46.2094 110.361 46.1683 110.477 46.1272 110.594Z" fill="#18181B"/>
<path d="M279.165 107.785C279.504 107.372 279.678 106.996 279.83 107.005C280.314 107.033 280.79 107.205 281.267 107.321C281.247 107.431 281.226 107.54 281.206 107.65C280.638 107.688 280.073 107.725 279.165 107.785Z" fill="#18181B"/>
<path d="M172.145 31.8029C172.781 31.8629 173.419 31.9219 174.055 31.9819C174.054 32.0729 174.052 32.164 174.051 32.255C173.405 32.255 172.758 32.255 172.112 32.255C172.123 32.105 172.134 31.9539 172.145 31.8029Z" fill="#18181B"/>
<path d="M435.686 61.9169C435.75 61.5429 435.806 61.2139 435.862 60.8859C435.938 60.8729 436.015 60.8609 436.092 60.8479C436.375 61.3279 436.659 61.8079 437.006 62.3969C436.508 62.2149 436.162 62.0889 435.686 61.9169Z" fill="#18181B"/>
<path d="M298.677 30.9589C299.529 30.9589 300.382 30.9589 301.234 30.9589C301.235 31.0469 301.237 31.1349 301.238 31.2239C300.386 31.2239 299.532 31.2239 298.679 31.2239C298.68 31.1359 298.679 31.0469 298.677 30.9589Z" fill="#18181B"/>
<path d="M46.1987 38.357C47.8632 37.537 48.1765 37.559 48.4971 38.357C47.8257 38.357 47.1483 38.357 46.1987 38.357Z" fill="#18181B"/>
<path d="M148.287 113.134C147.307 112.885 146.326 112.635 145.346 112.386C145.363 112.307 145.38 112.229 145.397 112.15C146.399 112.352 147.399 112.553 148.401 112.755C148.364 112.881 148.326 113.008 148.287 113.134Z" fill="#18181B"/>
<path d="M333.568 107.866C332.923 107.78 332.28 107.693 331.635 107.607C331.65 107.484 331.666 107.361 331.682 107.238C332.321 107.312 332.959 107.387 333.599 107.461C333.588 107.596 333.579 107.731 333.568 107.866Z" fill="#18181B"/>
<path d="M32.3379 94.505C32.6863 94.476 33.0347 94.4469 33.4496 94.4129C33.4496 94.7409 33.4496 95.0399 33.4496 95.5709C32.9573 95.2209 32.6016 94.9679 32.2459 94.7149C32.2762 94.6449 32.3076 94.575 32.3379 94.505Z" fill="#18181B"/>
<path d="M24.9865 44.13C24.6248 43.85 24.4058 43.6799 24.0719 43.4209C24.5098 43.1669 24.8485 42.971 25.4812 42.604C25.2683 43.261 25.1461 43.638 24.9865 44.13Z" fill="#18181B"/>
<path d="M283.605 33.065C283.283 32.648 282.96 32.2319 282.638 31.8159C282.735 31.7359 282.833 31.6559 282.93 31.5759C283.294 31.9629 283.658 32.3509 284.023 32.7379C283.883 32.8469 283.744 32.956 283.605 33.065Z" fill="#18181B"/>
<path d="M146.566 104.155C150.108 104.155 153.65 104.155 157.261 104.155C156.728 104.794 155.814 105.102 154.695 105.067C154.008 105.046 153.318 104.965 152.635 105.001C152.137 105.027 151.649 105.202 151.256 105.289C149.664 104.961 148.102 104.639 146.541 104.317C146.55 104.263 146.557 104.209 146.566 104.155Z" fill="#18181B"/>
<path d="M140.264 102.654C140.616 102.501 140.967 102.349 141.395 102.163C141.451 102.359 141.514 102.524 141.545 102.694C141.686 103.454 142.192 103.374 142.495 102.951C143.394 101.692 144.484 102.28 145.53 102.541C146.203 102.709 146.847 102.989 147.479 103.321C144.993 103.987 142.589 103.855 140.246 102.945C140.252 102.848 140.258 102.751 140.264 102.654Z" fill="#18181B"/>
<path d="M216.272 106.685C218.43 105.698 221.082 105.562 222.239 106.628C221.554 106.749 220.868 106.858 220.187 106.994C219.367 107.158 218.556 107.37 217.734 107.516C217.04 107.639 216.451 107.513 216.272 106.685Z" fill="#18181B"/>
<path d="M107.381 104.436C109.219 103.389 110.992 103.576 112.771 103.877C112.794 104.037 112.818 104.197 112.841 104.357C112.217 104.47 111.592 104.569 110.971 104.699C110.243 104.851 109.518 105.029 108.794 105.197C108.162 105.343 107.724 105.126 107.381 104.436Z" fill="#18181B"/>
<path d="M202.248 107.49C202.692 107.359 203.128 107.162 203.58 107.111C204.796 106.976 206.018 106.85 207.24 106.835C207.647 106.83 208.058 107.175 208.469 107.36C208.446 107.501 208.423 107.641 208.4 107.782C207.795 107.83 207.184 107.954 206.585 107.91C205.575 107.836 204.599 107.56 203.609 108.18C203.333 108.352 202.726 107.993 202.27 107.877C202.264 107.748 202.257 107.619 202.248 107.49Z" fill="#18181B"/>
<path d="M182.727 33.0799C181.772 34.1849 177.856 34.1539 177.158 32.9609C179.057 32.7289 180.855 32.7309 182.727 33.0799Z" fill="#18181B"/>
<path d="M20.2263 59.2919C20.1041 59.2489 19.8803 59.1689 19.5077 59.0369C19.4569 58.8389 19.3529 58.4379 19.2379 57.9929C19.4871 57.7999 19.7351 57.6079 19.9819 57.4169C20.8396 56.7539 21.2376 56.8039 22.0082 57.6029C22.4461 58.0569 22.4461 58.3429 21.8073 58.5749C21.3005 58.7609 20.8202 59.0189 20.2263 59.2919Z" fill="#18181B"/>
<path d="M17.71 59.257C17.4584 59.32 17.2987 59.4029 17.1499 59.3869C16.9358 59.3629 16.7301 59.2669 16.5208 59.2019C16.6721 59.0659 16.8027 58.865 16.9805 58.807C17.341 58.689 17.7281 58.6469 18.1818 58.5579C18.1818 58.9089 18.1818 59.1999 18.1818 59.4899C18.2665 59.4969 18.3511 59.503 18.437 59.51C18.4878 59.156 18.5387 58.8029 18.5882 58.4489C18.6862 58.4209 18.783 58.3939 18.881 58.3659C19.0262 58.9329 19.4544 59.8359 19.2596 60.0009C18.7963 60.3929 18.0378 60.4369 17.3979 60.6209C17.3386 60.5449 17.2781 60.4679 17.2188 60.3919C17.3628 60.0599 17.508 59.726 17.71 59.257Z" fill="#18181B"/>
<path d="M273.948 104.072C274 104.402 274.071 104.853 274.17 105.479C273.158 104.952 272.343 104.528 271.528 104.104C271.528 104.049 271.528 103.995 271.528 103.94C272.282 103.981 273.035 104.022 273.948 104.072Z" fill="#18181B"/>
<path d="M321.825 103.285C321.212 103.067 320.433 103.762 320.328 102.746C320.306 102.533 320.857 102.066 321.16 102.053C321.878 102.022 321.857 102.606 321.825 103.285Z" fill="#18181B"/>
<path d="M309.064 102.881C309.484 102.718 309.838 102.58 310.256 102.419C310.437 102.678 310.638 102.963 310.835 103.244C310.136 104.044 309.447 103.913 309.064 102.881Z" fill="#18181B"/>
<path d="M191.561 32.0509C191.034 32.0839 190.506 32.1489 189.982 32.1259C189.856 32.1199 189.649 31.8159 189.654 31.6549C189.659 31.5049 189.92 31.221 190.027 31.239C190.569 31.331 191.096 31.502 191.629 31.646C191.605 31.781 191.584 31.9159 191.561 32.0509Z" fill="#18181B"/>
<path d="M88.3969 33.687C87.9009 33.728 87.4025 33.805 86.9089 33.783C86.7867 33.778 86.5895 33.4519 86.592 33.2769C86.5944 33.1469 86.8883 32.8949 87.0129 32.9179C87.4992 33.0069 87.9698 33.1819 88.4464 33.3259C88.4307 33.4459 88.4138 33.567 88.3969 33.687Z" fill="#18181B"/>
<path d="M314.477 102.65C314.79 102.499 315.102 102.347 315.414 102.196C315.485 102.233 315.556 102.269 315.627 102.306C315.365 102.723 315.103 103.139 314.842 103.556C314.608 103.27 314.375 102.985 314.141 102.7C314.254 102.683 314.365 102.666 314.477 102.65Z" fill="#18181B"/>
<path d="M158.808 35.221C159.478 35.285 160.148 35.3489 160.818 35.4129C160.803 35.5569 160.787 35.6999 160.772 35.8439C160.097 35.7609 159.424 35.6769 158.749 35.5939C158.768 35.4699 158.787 35.346 158.808 35.221Z" fill="#18181B"/>
</svg>
